HIERARCHY
ROOT hip
{
  OFFSET 0 0 0
  CHANNELS 6 Xposition Yposition Zposition Zrotation Yrotation Xrotation
  JOINT abdomen
  {
    OFFSET 0 20.6881 -0.73152
    CHANNELS 3 Zrotation Xrotation Yrotation
    JOINT chest
    {
      OFFSET 0 11.7043 -0.48768
      CHANNELS 3 Zrotation Xrotation Yrotation
      JOINT neck
      {
        OFFSET 0 22.1894 -2.19456
        CHANNELS 3 Zrotation Xrotation Yrotation
        JOINT head
        {
          OFFSET -0.24384 7.07133 1.2192
          CHANNELS 3 Zrotation Xrotation Yrotation
          JOINT leftEye
          {
            OFFSET 4.14528 8.04674 8.04672
            CHANNELS 3 Zrotation Xrotation Yrotation
            End Site
            {
              OFFSET 1 0 0
            }
          }
          JOINT rightEye
          {
            OFFSET -3.6576 8.04674 8.04672
            CHANNELS 3 Zrotation Xrotation Yrotation
            End Site
            {
              OFFSET 1 0 0
            }
          }
        }
      }
      JOINT rCollar
      {
        OFFSET -2.68224 19.2634 -4.8768
        CHANNELS 3 Zrotation Xrotation Yrotation
        JOINT rShldr
        {
          OFFSET -8.77824 -1.95073 1.46304
          CHANNELS 3 Zrotation Xrotation Yrotation
          JOINT rForeArm
          {
            OFFSET -28.1742 -1.7115 0.48768
            CHANNELS 3 Zrotation Xrotation Yrotation
            JOINT rHand
            {
              OFFSET -22.5879 0.773209 7.07136
              CHANNELS 3 Zrotation Xrotation Yrotation
              JOINT rThumb1
              {
                OFFSET -1.2192 -0.487915 3.41376
                CHANNELS 3 Zrotation Xrotation Yrotation
                JOINT rThumb2
                {
                  OFFSET -3.37035 -0.52449 3.41376
                  CHANNELS 3 Zrotation Xrotation Yrotation
                  End Site
                  {
                    OFFSET -1.78271 -1.18214 1.43049
                  }
                }
              }
              JOINT rIndex1
              {
                OFFSET -7.75947 0.938293 5.60832
                CHANNELS 3 Zrotation Xrotation Yrotation
                JOINT rIndex2
                {
                  OFFSET -2.54057 -0.884171 1.56538
                  CHANNELS 3 Zrotation Xrotation Yrotation
                  End Site
                  {
                    OFFSET -1.62519 -0.234802 1.16502
                  }
                }
              }
              JOINT rMid1
              {
                OFFSET -8.24714 1.18213 3.41376
                CHANNELS 3 Zrotation Xrotation Yrotation
                JOINT rMid2
                {
                  OFFSET -3.10165 -0.590103 1.0647
                  CHANNELS 3 Zrotation Xrotation Yrotation
                  End Site
                  {
                    OFFSET -2.48547 -0.328903 0.83742
                  }
                }
              }
              JOINT rRing1
              {
                OFFSET -8.82822 0.546677 1.51678
                CHANNELS 3 Zrotation Xrotation Yrotation
                JOINT rRing2
                {
                  OFFSET -2.60934 -0.819778 -0.0198488
                  CHANNELS 3 Zrotation Xrotation Yrotation
                  End Site
                  {
                    OFFSET -2.33842 -0.294052 0.168128
                  }
                }
              }
              JOINT rPinky1
              {
                OFFSET -8.27202 -0.0477905 -0.4584
                CHANNELS 3 Zrotation Xrotation Yrotation
                JOINT rPinky2
                {
                  OFFSET -1.82734 -0.647385 -0.700984
                  CHANNELS 3 Zrotation Xrotation Yrotation
                  End Site
                  {
                    OFFSET -1.69225 -0.51767 -0.607171
                  }
                }
              }
            }
          }
        }
      }
      JOINT lCollar
      {
        OFFSET 2.68224 19.2634 -4.8768
        CHANNELS 3 Zrotation Xrotation Yrotation
        JOINT lShldr
        {
          OFFSET 8.77824 -1.95073 1.46304
          CHANNELS 3 Zrotation Xrotation Yrotation
          JOINT lForeArm
          {
            OFFSET 28.1742 -1.7115 0.48768
            CHANNELS 3 Zrotation Xrotation Yrotation
            JOINT lHand
            {
              OFFSET 22.5879 0.773209 7.07136
              CHANNELS 3 Zrotation Xrotation Yrotation
              JOINT lThumb1
              {
                OFFSET 1.2192 -0.487915 3.41376
                CHANNELS 3 Zrotation Xrotation Yrotation
                JOINT lThumb2
                {
                  OFFSET 3.37035 -0.52449 3.41376
                  CHANNELS 3 Zrotation Xrotation Yrotation
                  End Site
                  {
                    OFFSET 1.78271 -1.18214 1.43049
                  }
                }
              }
              JOINT lIndex1
              {
                OFFSET 7.75947 0.938293 5.60832
                CHANNELS 3 Zrotation Xrotation Yrotation
                JOINT lIndex2
                {
                  OFFSET 2.54057 -0.884171 1.56538
                  CHANNELS 3 Zrotation Xrotation Yrotation
                  End Site
                  {
                    OFFSET 1.62519 -0.234802 1.16502
                  }
                }
              }
              JOINT lMid1
              {
                OFFSET 8.24714 1.18213 3.41376
                CHANNELS 3 Zrotation Xrotation Yrotation
                JOINT lMid2
                {
                  OFFSET 3.10165 -0.590103 1.0647
                  CHANNELS 3 Zrotation Xrotation Yrotation
                  End Site
                  {
                    OFFSET 2.48547 -0.328903 0.83742
                  }
                }
              }
              JOINT lRing1
              {
                OFFSET 8.82822 0.546677 1.51678
                CHANNELS 3 Zrotation Xrotation Yrotation
                JOINT lRing2
                {
                  OFFSET 2.60934 -0.819778 -0.0198488
                  CHANNELS 3 Zrotation Xrotation Yrotation
                  End Site
                  {
                    OFFSET 2.33842 -0.294052 0.168128
                  }
                }
              }
              JOINT lPinky1
              {
                OFFSET 8.27202 -0.0477905 -0.4584
                CHANNELS 3 Zrotation Xrotation Yrotation
                JOINT lPinky2
                {
                  OFFSET 1.82734 -0.647385 -0.700984
                  CHANNELS 3 Zrotation Xrotation Yrotation
                  End Site
                  {
                    OFFSET 1.69225 -0.51767 -0.607171
                  }
                }
              }
            }
          }
        }
      }
    }
  }
  JOINT rButtock
  {
    OFFSET -8.77824 4.35084 1.2192
    CHANNELS 3 Zrotation Xrotation Yrotation
    JOINT rThigh
    {
      OFFSET 0 -1.70687 -2.19456
      CHANNELS 3 Zrotation Xrotation Yrotation
      JOINT rShin
      {
        OFFSET 0 -36.8199 0.73152
        CHANNELS 3 Zrotation Xrotation Yrotation
        JOINT rFoot
        {
          OFFSET 0.73152 -45.1104 -5.12064
          CHANNELS 3 Zrotation Xrotation Yrotation
          End Site
          {
            OFFSET -1.1221 -3.69964 12.103
          }
        }
      }
    }
  }
  JOINT lButtock
  {
    OFFSET 8.77824 4.35084 1.2192
    CHANNELS 3 Zrotation Xrotation Yrotation
    JOINT lThigh
    {
      OFFSET 0 -1.70687 -2.19456
      CHANNELS 3 Zrotation Xrotation Yrotation
      JOINT lShin
      {
        OFFSET 0 -36.8199 0.73152
        CHANNELS 3 Zrotation Xrotation Yrotation
        JOINT lFoot
        {
          OFFSET -0.73152 -45.1104 -5.12064
          CHANNELS 3 Zrotation Xrotation Yrotation
          End Site
          {
            OFFSET 1.1221 -3.69964 12.103
          }
        }
      }
    }
  }
}
MOTION
Frames:	4
Frame Time:	0.00833333
31.5346 82.1014 5.07514 177.166 -60.5461 -173.528 -5.13817 28.7361 -8.22326 4.94255 -3.19402 -2.97347 -16.7953 -6.08224 -13.3797 29.8278 -1.94276 -20.696 -0.0 0.0 0.0 -0.0 0.0 0.0 -1.55807e-13 3.72134e-13 1.20911e-13 23.1638 12.235 63.5614 -21.7425 -51.8682 109.795 -7.66805 -58.9802 -13.516 -1.43649e-09 2.71115e-10 6.83269e-10 -2.50623e-09 5.29575e-10 1.10174e-09 -1.43649e-09 2.71112e-10 6.83256e-10 7.73091 5.47488 0.417314 -1.43649e-09 2.71114e-10 6.83269e-10 2.90554 0.965183 0.102902 -1.43649e-09 2.71115e-10 6.83264e-10 10.2786 0.731801 0.0259123 -1.4365e-09 2.71116e-10 6.83272e-10 2.22167 -0.733487 -0.20892 -1.55898e-13 3.72116e-13 1.20712e-13 -64.3727 25.7566 -15.0181 22.8471 -17.0844 -46.145 0.624881 -21.8688 3.23367 8.85543e-10 1.11223e-09 -1.53625e-09 1.55853e-09 1.93041e-09 -2.64444e-09 8.85542e-10 1.11223e-09 -1.53624e-09 -7.73091 5.47488 -0.417314 8.85544e-10 1.11223e-09 -1.53624e-09 -2.90554 0.965183 -0.102902 8.85536e-10 1.11223e-09 -1.53625e-09 -10.2786 0.731801 -0.0259123 8.85541e-10 1.11223e-09 -1.53626e-09 -2.22167 -0.733487 0.20892 -2.03217e-16 0.0 -3.88251e-19 -15.1724 -41.2673 0.717962 -0.620274 50.2018 0.848391 0.370767 -11.395 3.41439 2.03217e-16 0.0 3.88251e-19 24.568 -28.0619 29.7211 1.04978 59.3337 -1.39424 7.92022 -21.605 13.3519
31.5481 82.0895 5.04346 176.899 -60.0164 -173.296 -5.04577 28.6735 -8.4627 4.93889 -3.09344 -3.04186 -16.7756 -6.0002 -13.4239 29.9244 -2.11125 -20.791 -0.0 0.0 0.0 -0.0 0.0 0.0 -1.20228e-13 2.36896e-13 1.55363e-13 23.2849 12.213 63.4638 -21.6807 -51.9261 109.959 -7.60459 -58.8435 -13.4418 -1.03046e-09 7.75627e-11 2.01472e-10 -1.78436e-09 1.65369e-10 2.93491e-10 -1.03045e-09 7.75592e-11 2.01459e-10 7.73091 5.47488 0.417314 -1.03046e-09 7.75619e-11 2.01472e-10 2.90554 0.965183 0.102902 -1.03045e-09 7.7562e-11 2.0147e-10 10.2786 0.731801 0.0259123 -1.03046e-09 7.75632e-11 2.01479e-10 2.22167 -0.733487 -0.20892 -1.20296e-13 2.3687e-13 1.5517e-13 -64.3934 25.794 -15.0057 22.8465 -17.0834 -46.1433 0.619659 -21.7829 3.21963 3.30345e-10 6.29164e-10 -1.15943e-09 5.92865e-10 1.09573e-09 -2.00055e-09 3.30346e-10 6.29168e-10 -1.15942e-09 -7.73091 5.47488 -0.417314 3.30348e-10 6.29169e-10 -1.15942e-09 -2.90554 0.965183 -0.102902 3.3034e-10 6.2917e-10 -1.15943e-09 -10.2786 0.731801 -0.0259123 3.30343e-10 6.29168e-10 -1.15944e-09 -2.22167 -0.733487 0.20892 -2.03217e-16 0.0 -3.88251e-19 -14.9126 -41.508 1.07301 -0.622032 50.2073 0.841281 0.488779 -11.2703 3.81175 2.03217e-16 0.0 3.88251e-19 24.5731 -27.7088 29.961 1.04534 59.2843 -1.39589 8.11619 -21.7316 13.6686
31.4856 82.1014 4.93292 176.944 -59.2566 -173.526 -4.86523 28.5855 -8.70503 4.93395 -3.02945 -3.10053 -16.7585 -5.88524 -13.4584 30.0645 -2.36137 -20.8555 -0.0 0.0 0.0 -0.0 0.0 0.0 -1.07418e-13 7.67953e-14 2.66607e-13 23.3845 12.2322 63.3705 -21.6141 -51.9879 110.135 -7.54398 -58.7117 -13.371 -1.99372e-10 -2.08806e-10 -5.36407e-10 -3.19772e-10 -3.81301e-10 -9.32691e-10 -1.99369e-10 -2.08809e-10 -5.36421e-10 7.73091 5.47488 0.417314 -1.99372e-10 -2.08807e-10 -5.36406e-10 2.90554 0.965183 0.102902 -1.99367e-10 -2.08807e-10 -5.36404e-10 10.2786 0.731801 0.0259123 -1.99377e-10 -2.08805e-10 -5.36393e-10 2.22167 -0.733487 -0.20892 -1.07488e-13 7.67657e-14 2.66418e-13 -64.3861 25.8888 -15.0484 22.8385 -17.0703 -46.1204 0.612925 -21.6708 3.20136 -4.98455e-10 -1.5108e-10 -4.90115e-10 -8.51221e-10 -2.53846e-10 -8.54304e-10 -4.98452e-10 -1.51072e-10 -4.90106e-10 -7.73091 5.47488 -0.417314 -4.98451e-10 -1.51071e-10 -4.90111e-10 -2.90554 0.965183 -0.102902 -4.98459e-10 -1.5107e-10 -4.90113e-10 -10.2786 0.731801 -0.0259123 -4.98458e-10 -1.51071e-10 -4.90121e-10 -2.22167 -0.733487 0.20892 -2.03217e-16 0.0 -3.88251e-19 -14.6022 -41.8215 1.37352 -0.624321 50.2329 0.835895 0.592093 -11.1206 4.17229 2.03217e-16 0.0 3.88251e-19 24.6902 -27.5066 30.1999 1.04427 59.2806 -1.3987 8.25182 -21.7643 13.9052
31.5674 82.0742 4.85824 177.149 -58.7121 -173.542 -4.65292 28.4957 -8.9402 4.92528 -2.98736 -3.15296 -16.7271 -5.78296 -13.485 30.1905 -2.59476 -20.9105 -0.0 0.0 0.0 -0.0 0.0 0.0 -1.12838e-13 -5.49046e-14 3.94854e-13 23.4606 12.2537 63.2691 -21.5458 -52.0507 110.315 -7.49245 -58.5987 -13.3106 6.36728e-10 -4.94168e-10 -1.28373e-09 1.15357e-09 -9.26689e-10 -2.17453e-09 6.36731e-10 -4.94172e-10 -1.28374e-09 7.73091 5.47488 0.417314 6.36727e-10 -4.94169e-10 -1.28373e-09 2.90554 0.965183 0.102902 6.36732e-10 -4.94169e-10 -1.28372e-09 10.2786 0.731801 0.0259123 6.36723e-10 -4.94167e-10 -1.28371e-09 2.22167 -0.733487 -0.20892 -1.12921e-13 -5.49364e-14 3.94663e-13 -64.359 26.0258 -15.1304 22.8278 -17.053 -46.0899 0.60466 -21.5326 3.17887 -1.26559e-09 -8.56822e-10 1.16867e-10 -2.1879e-09 -1.47446e-09 1.85193e-10 -1.26558e-09 -8.56811e-10 1.16876e-10 -7.73091 5.47488 -0.417314 -1.26558e-09 -8.56808e-10 1.1687e-10 -2.90554 0.965183 -0.102902 -1.26559e-09 -8.56807e-10 1.16869e-10 -10.2786 0.731801 -0.0259123 -1.26559e-09 -8.56809e-10 1.16864e-10 -2.22167 -0.733487 0.20892 -2.03217e-16 0.0 -3.88251e-19 -14.2976 -42.1331 1.62747 -0.626561 50.2626 0.831594 0.679932 -10.9768 4.48704 2.03217e-16 0.0 3.88251e-19 24.8313 -27.3736 30.4123 1.04391 59.2838 -1.40102 8.35688 -21.7432 14.105
